<svg width="32" height="32" viewBox="0 0 32 32" fill="none" xmlns="http://www.w3.org/2000/svg">
<path d="M31.1679 28.9569C31.313 29.1021 31.4282 29.2744 31.5068 29.4641C31.5853 29.6538 31.6258 29.8571 31.6258 30.0624C31.6258 30.2677 31.5853 30.471 31.5068 30.6607C31.4282 30.8503 31.313 31.0227 31.1679 31.1679C31.0227 31.313 30.8503 31.4282 30.6607 31.5068C30.471 31.5853 30.2677 31.6258 30.0624 31.6258C29.8571 31.6258 29.6538 31.5853 29.4641 31.5068C29.2744 31.4282 29.1021 31.313 28.9569 31.1679L15.9999 18.2089L3.04286 31.1679C2.74967 31.4611 2.35202 31.6258 1.93739 31.6258C1.52276 31.6258 1.12511 31.4611 0.831923 31.1679C0.538735 30.8747 0.374023 30.477 0.374023 30.0624C0.374023 29.6478 0.538735 29.2501 0.831923 28.9569L13.7909 15.9999L0.831923 3.04286C0.538735 2.74967 0.374023 2.35202 0.374023 1.93739C0.374023 1.52276 0.538735 1.12511 0.831923 0.831923C1.12511 0.538735 1.52276 0.374023 1.93739 0.374023C2.35202 0.374023 2.74967 0.538735 3.04286 0.831923L15.9999 13.7909L28.9569 0.831923C29.2501 0.538735 29.6478 0.374023 30.0624 0.374023C30.477 0.374023 30.8747 0.538735 31.1679 0.831923C31.4611 1.12511 31.6258 1.52276 31.6258 1.93739C31.6258 2.35202 31.4611 2.74967 31.1679 3.04286L18.2089 15.9999L31.1679 28.9569Z" fill="white"/>
</svg>
