<svg width="120" height="90" viewBox="0 0 120 90" fill="none" xmlns="http://www.w3.org/2000/svg">
<path d="M27.1316 89.557V43.4332L12.8271 30.3468L4.81664e-05 23.0848V81.4174C4.81664e-05 85.9211 3.64901 89.557 8.13969 89.557H27.1316Z" fill="#4285F4"/>
<path d="M92.2468 89.557H111.239C115.743 89.557 119.378 85.9076 119.378 81.4174V23.0852L104.85 31.403L92.2468 43.4332V89.557Z" fill="#34A853"/>
<path d="M27.1316 43.4332L25.1852 25.4112L27.1316 8.16249L59.6892 32.5809L92.2468 8.16249L94.4241 24.48L92.2468 43.4332L59.6892 67.8516L27.1316 43.4332Z" fill="#EA4335"/>
<path d="M92.2468 8.16249L92.2468 43.4332L119.378 23.0852V12.2321C119.378 2.16653 107.888 -3.57155 99.8441 2.46498L92.2468 8.16249Z" fill="#FBBC04"/>
<path d="M4.81664e-05 23.0848L27.1316 43.4332L27.1316 8.16249L19.5342 2.46504C11.4762 -3.57195 0 2.1666 0 12.2317L4.81664e-05 23.0848Z" fill="#C5221F"/>
</svg>
