<svg width="32" height="36" viewBox="0 0 32 36" fill="none" xmlns="http://www.w3.org/2000/svg">
<path fill-rule="evenodd" clip-rule="evenodd" d="M0 4.44643C0 3.26716 0.240816 2.1362 0.66947 1.30233C1.09812 0.468463 1.67951 0 2.28571 0H29.7143C30.3205 0 30.9019 0.468463 31.3305 1.30233C31.7592 2.1362 32 3.26716 32 4.44643C32 5.6257 31.7592 6.75666 31.3305 7.59053C30.9019 8.42439 30.3205 8.89286 29.7143 8.89286H2.28571C1.67951 8.89286 1.09812 8.42439 0.66947 7.59053C0.240816 6.75666 0 5.6257 0 4.44643ZM0 31.125C0 29.9457 0.240816 28.8148 0.66947 27.9809C1.09812 27.147 1.67951 26.6786 2.28571 26.6786H29.7143C30.3205 26.6786 30.9019 27.147 31.3305 27.9809C31.7592 28.8148 32 29.9457 32 31.125C32 32.3043 31.7592 33.4352 31.3305 34.2691C30.9019 35.103 30.3205 35.5714 29.7143 35.5714H2.28571C1.67951 35.5714 1.09812 35.103 0.66947 34.2691C0.240816 33.4352 0 32.3043 0 31.125Z" fill="white"/>
</svg>
