<svg width="175" height="50" viewBox="0 0 175 50" fill="none" xmlns="http://www.w3.org/2000/svg">
<path d="M0 15C0 6.71573 6.71573 0 15 0H160C168.284 0 175 6.71573 175 15V35C175 43.2843 168.284 50 160 50H15C6.71573 50 0 43.2843 0 35V15Z" fill="white"/>
<path d="M48.6147 18.848C48.6147 17.44 49.0841 16.3413 50.0228 15.552C50.9614 14.7413 52.2734 14.336 53.9588 14.336C55.6654 14.336 57.1054 14.5173 58.2788 14.88V17.056C57.1694 16.6507 55.8148 16.448 54.2148 16.448C52.0174 16.448 50.9188 17.28 50.9188 18.944V20.48C50.9188 21.2267 51.0574 21.8133 51.3348 22.24C51.6334 22.6667 52.1241 23.072 52.8068 23.456L56.5187 25.536C58.2467 26.4747 59.1107 27.8933 59.1107 29.792V31.52C59.1107 32.992 58.6094 34.1333 57.6068 34.944C56.6041 35.7547 55.1534 36.16 53.2547 36.16C51.3774 36.16 49.8841 35.9467 48.7747 35.52V33.344C50.0334 33.8133 51.4628 34.048 53.0628 34.048C55.5801 34.048 56.8388 33.1627 56.8388 31.392V30.048C56.8388 29.344 56.7108 28.7893 56.4548 28.384C56.1988 27.9787 55.7401 27.5947 55.0788 27.232L51.3988 25.216C49.5428 24.2133 48.6147 22.72 48.6147 20.736V18.848Z" fill="black"/>
<path d="M67.037 34.048C68.1037 34.048 69.1277 33.7173 70.109 33.056V17.792H72.381V36H70.205V35.136C68.9677 35.7547 67.6983 36.064 66.397 36.064C65.117 36.064 64.093 35.68 63.325 34.912C62.557 34.1227 62.173 32.992 62.173 31.52V17.792H64.445V31.328C64.445 33.1413 65.309 34.048 67.037 34.048Z" fill="black"/>
<path d="M84.7377 22.176C84.7377 20.6187 83.9591 19.84 82.4017 19.84C81.5484 19.84 80.4391 20.096 79.0738 20.608V33.92H81.7298C83.7351 33.92 84.7377 32.9813 84.7377 31.104V22.176ZM76.8018 12.96H79.0417V18.496C80.3217 17.9627 81.5911 17.696 82.8497 17.696C84.1084 17.696 85.1217 18.0693 85.8897 18.816C86.6577 19.5627 87.0417 20.608 87.0417 21.952V31.264C87.0417 32.7787 86.6044 33.952 85.7298 34.784C84.8764 35.5947 83.7244 36 82.2738 36H76.8018V12.96Z" fill="black"/>
<path d="M100.362 19.04C101.834 18.1653 103.296 17.728 104.746 17.728C106.197 17.728 107.306 18.1013 108.074 18.848C108.842 19.5733 109.226 20.608 109.226 21.952V36H106.922V22.176C106.922 20.6187 106.144 19.84 104.586 19.84C103.434 19.84 102.282 20.192 101.13 20.896C101.237 21.216 101.29 21.6427 101.29 22.176V36H99.0182V22.176C99.0182 20.6187 98.2289 19.84 96.6503 19.84C95.6476 19.84 94.5596 20.1173 93.3863 20.672V36H91.1143V17.792H93.2903V18.624C94.7196 18.0267 95.9676 17.728 97.0342 17.728C98.4849 17.728 99.5943 18.1653 100.362 19.04Z" fill="black"/>
<path d="M114.609 15.744C113.692 15.744 113.233 15.2533 113.233 14.272C113.233 13.2907 113.692 12.8 114.609 12.8C115.548 12.8 116.017 13.2907 116.017 14.272C116.017 15.2533 115.548 15.744 114.609 15.744ZM113.489 17.92H115.761V36H113.489V17.92Z" fill="black"/>
<path d="M122.417 14.496V17.792H126.481V19.808H122.417V31.968C122.417 32.7147 122.598 33.2587 122.961 33.6C123.323 33.92 123.878 34.08 124.625 34.08C125.371 34.08 126.097 33.9627 126.801 33.728V35.808C125.947 36.0213 125.147 36.128 124.401 36.128C121.542 36.128 120.113 34.7733 120.113 32.064V19.808H118.129V17.792H120.209L120.849 14.496H122.417Z" fill="black"/>
</svg>
